# xmcd
#
# Track frame offsets:
#	150
#	22345
#	39582
#	56455
#	80245
#	99470
#	120137
#	138735
#	159082
#	175322
#	190762
#	209325
#	220835
#	241027
#	262215
#	282130
#	306462
#	327722
#
# Disc length: 4680 seconds
#
# Revision: 1
# Processed by: cddbd v1.5.1PL0 Copyright (c) Steve Scherf et al.
# Submitted via: CDex 1.50Beta5
#
DISCID=0c124612
DTITLE=Ous Songs - OUR Songs Disc-03
DYEAR=2002
DGENRE=Pop
TTITLE0=小田和正/ラブ・ストーリーは突然に
TTITLE1=徳永英明/風のエオリア
TTITLE2=永井真理子/ミラクル・ガール
TTITLE3=Jaywalk/何も言えなくて…夏
TTITLE4=ZIGGY/Gloria
TTITLE5=福山雅治/It's Only Love
TTITLE6=岡村孝子/はぐれそうな天使
TTITLE7=竹内まりや/September
TTITLE8=矢野顕子/春咲小紅
TTITLE9=サーカス/アメリカン・フィーリング
TTITLE10=YMO/君に、胸キュン。
TTITLE11=ザ・ヴィーナス/キッスは目にして！
TTITLE12=徳永英明/輝きながら…
TTITLE13=館ひろし/泣かないで
TTITLE14=オフコース/君が、嘘を、ついた
TTITLE15=シャ乱Ｑ/シングルベッド
TTITLE16=幸島 美登里/サイレント・イヴ
TTITLE17=徳永英明/壊れかけのRadio
EXTD=
EXTT0=
EXTT1=
EXTT2=
EXTT3=
EXTT4=
EXTT5=
EXTT6=
EXTT7=
EXTT8=
EXTT9=
EXTT10=
EXTT11=
EXTT12=
EXTT13=
EXTT14=
EXTT15=
EXTT16=
EXTT17=
PLAYORDER=
